<?xml version="1.0" encoding="UTF-8" standalone="no"?>
<!DOCTYPE svg PUBLIC "-//W3C//DTD SVG 1.1//EN" "http://www.w3.org/Graphics/SVG/1.1/DTD/svg11.dtd">
<svg version="1.1" xmlns="http://www.w3.org/2000/svg" xmlns:xlink="http://www.w3.org/1999/xlink" preserveAspectRatio="xMidYMid meet" viewBox="0 0 640 640" width="100" height="100"><defs><path d="M43.7 164.68L2.5 111L113.98 108.28L155.18 161.96L43.7 164.68Z" id="h5skvVa4B"></path><path d="M181.84 6.41L113.98 108.28L155.18 161.96L223.04 60.09L181.84 6.41Z" id="aBSTbplco"></path><path d="M70.36 9.13L2.5 111L113.98 108.28L181.84 6.41L70.36 9.13Z" id="alqKh3HXP"></path><path d="M70.36 9.13L2.5 111L43.7 164.68L111.56 62.82L70.36 9.13Z" id="a5f0a1CLx6"></path><path d="M111.56 62.82L70.36 9.13L181.84 6.41L223.04 60.09L111.56 62.82Z" id="aka8seBN6"></path><path d="M111.56 62.82L43.7 164.68L155.18 161.96L223.04 60.09L111.56 62.82Z" id="a1698GTZC2"></path><path d="M500.11 329.12L311.1 329.12" id="a5wBDZP4w3"></path><path d="M505.3 468.28L438.69 468.28" id="ap9sLEXeH"></path><path d="M639.88 131.95C639.88 131.95 639.88 131.95 639.88 131.95C639.88 211.71 639.88 256.02 639.88 264.88C639.88 264.88 639.88 264.88 639.88 264.88C556.39 264.88 510 264.88 500.72 264.88C500.72 264.88 500.72 264.88 500.72 264.88C500.72 185.12 500.72 140.81 500.72 131.95C500.72 131.95 500.72 131.95 500.72 131.95C584.22 131.95 630.61 131.95 639.88 131.95Z" id="aAxwJPvDn"></path><path d="M513.84 136.27C513.84 136.27 513.84 136.27 513.84 136.27C513.84 210.83 513.84 252.25 513.84 260.54C513.84 260.54 513.84 260.54 513.84 260.54C508.55 260.54 505.61 260.54 505.02 260.54C505.02 260.54 505.02 260.54 505.02 260.54C505.02 185.98 505.02 144.55 505.02 136.27C505.02 136.27 505.02 136.27 505.02 136.27C510.31 136.27 513.25 136.27 513.84 136.27Z" id="a829YLQeAj"></path><path d="M635.37 145.24C635.37 145.24 635.37 145.24 635.37 145.24C560.03 145.24 518.17 145.24 509.8 145.24C509.8 145.24 509.8 145.24 509.8 145.24C509.8 139.96 509.8 137.02 509.8 136.43C509.8 136.43 509.8 136.43 509.8 136.43C585.14 136.43 627 136.43 635.37 136.43C635.37 136.43 635.37 136.43 635.37 136.43C635.37 141.72 635.37 144.66 635.37 145.24Z" id="agYHCn76Q"></path><path d="M635.28 260.48C635.28 260.48 635.28 260.48 635.28 260.48C562.43 260.48 521.96 260.48 513.86 260.48C513.86 260.48 513.86 260.48 513.86 260.48C513.86 255.19 513.86 252.25 513.86 251.66C513.86 251.66 513.86 251.66 513.86 251.66C586.71 251.66 627.19 251.66 635.28 251.66C635.28 251.66 635.28 251.66 635.28 251.66C635.28 256.95 635.28 259.89 635.28 260.48Z" id="hmCMTqR6T"></path><path d="M635.89 144.47C635.89 144.47 635.89 144.47 635.89 144.47C635.89 212.34 635.89 250.04 635.89 257.58C635.89 257.58 635.89 257.58 635.89 257.58C630.6 257.58 627.67 257.58 627.08 257.58C627.08 257.58 627.08 257.58 627.08 257.58C627.08 189.72 627.08 152.01 627.08 144.47C627.08 144.47 627.08 144.47 627.08 144.47C632.37 144.47 635.3 144.47 635.89 144.47Z" id="ae0w0MJG"></path><path d="M640 267.7C640 267.7 640 267.7 640 267.7C640 347.46 640 391.77 640 400.63C640 400.63 640 400.63 640 400.63C556.5 400.63 510.12 400.63 500.84 400.63C500.84 400.63 500.84 400.63 500.84 400.63C500.84 320.87 500.84 276.56 500.84 267.7C500.84 267.7 500.84 267.7 500.84 267.7C584.34 267.7 630.72 267.7 640 267.7Z" id="d2qJQkvhzT"></path><path d="M513.95 271.97C513.95 271.97 513.95 271.97 513.95 271.97C513.95 346.57 513.95 388.02 513.95 396.31C513.95 396.31 513.95 396.31 513.95 396.31C508.67 396.31 505.73 396.31 505.14 396.31C505.14 396.31 505.14 396.31 505.14 396.31C505.14 321.7 505.14 280.26 505.14 271.97C505.14 271.97 505.14 271.97 505.14 271.97C510.43 271.97 513.37 271.97 513.95 271.97Z" id="i1jjwAhBrb"></path><path d="M635.8 280.78C635.8 280.78 635.8 280.78 635.8 280.78C560.27 280.78 518.31 280.78 509.91 280.78C509.91 280.78 509.91 280.78 509.91 280.78C509.91 275.49 509.91 272.56 509.91 271.97C509.91 271.97 509.91 271.97 509.91 271.97C585.45 271.97 627.41 271.97 635.8 271.97C635.8 271.97 635.8 271.97 635.8 271.97C635.8 277.26 635.8 280.19 635.8 280.78Z" id="c1CQ68dbJr"></path><path d="M635.82 396.23C635.82 396.23 635.82 396.23 635.82 396.23C562.72 396.23 522.1 396.23 513.98 396.23C513.98 396.23 513.98 396.23 513.98 396.23C513.98 390.94 513.98 388 513.98 387.41C513.98 387.41 513.98 387.41 513.98 387.41C587.09 387.41 627.7 387.41 635.82 387.41C635.82 387.41 635.82 387.41 635.82 387.41C635.82 392.7 635.82 395.64 635.82 396.23Z" id="cqoX02nHn"></path><path d="M635.9 280.73C635.9 280.73 635.9 280.73 635.9 280.73C635.9 347.98 635.9 385.33 635.9 392.81C635.9 392.81 635.9 392.81 635.9 392.81C630.61 392.81 627.68 392.81 627.09 392.81C627.09 392.81 627.09 392.81 627.09 392.81C627.09 325.56 627.09 288.2 627.09 280.73C627.09 280.73 627.09 280.73 627.09 280.73C632.38 280.73 635.31 280.73 635.9 280.73Z" id="b3uIloTMQ"></path><path d="M640 401.46C640 401.46 640 401.46 640 401.46C640 481.22 640 525.53 640 534.39C640 534.39 640 534.39 640 534.39C556.5 534.39 510.12 534.39 500.84 534.39C500.84 534.39 500.84 534.39 500.84 534.39C500.84 454.63 500.84 410.32 500.84 401.46C500.84 401.46 500.84 401.46 500.84 401.46C584.34 401.46 630.72 401.46 640 401.46Z" id="axwjGP5Zx"></path><path d="M513.95 405.73C513.95 405.73 513.95 405.73 513.95 405.73C513.95 480.34 513.95 521.79 513.95 530.08C513.95 530.08 513.95 530.08 513.95 530.08C508.67 530.08 505.73 530.08 505.14 530.08C505.14 530.08 505.14 530.08 505.14 530.08C505.14 455.47 505.14 414.02 505.14 405.73C505.14 405.73 505.14 405.73 505.14 405.73C510.43 405.73 513.37 405.73 513.95 405.73Z" id="c1y14FGOhF"></path><path d="M635.49 414.65C635.49 414.65 635.49 414.65 635.49 414.65C560.14 414.65 518.29 414.65 509.91 414.65C509.91 414.65 509.91 414.65 509.91 414.65C509.91 409.36 509.91 406.42 509.91 405.84C509.91 405.84 509.91 405.84 509.91 405.84C585.26 405.84 627.12 405.84 635.49 405.84C635.49 405.84 635.49 405.84 635.49 405.84C635.49 411.12 635.49 414.06 635.49 414.65Z" id="acXSiY32H"></path><path d="M635.4 529.99C635.4 529.99 635.4 529.99 635.4 529.99C562.55 529.99 522.08 529.99 513.98 529.99C513.98 529.99 513.98 529.99 513.98 529.99C513.98 524.7 513.98 521.76 513.98 521.18C513.98 521.18 513.98 521.18 513.98 521.18C586.83 521.18 627.31 521.18 635.4 521.18C635.4 521.18 635.4 521.18 635.4 521.18C635.4 526.46 635.4 529.4 635.4 529.99Z" id="avF9NWftW"></path><path d="M636.01 415.02C636.01 415.02 636.01 415.02 636.01 415.02C636.01 482.27 636.01 519.62 636.01 527.09C636.01 527.09 636.01 527.09 636.01 527.09C630.72 527.09 627.78 527.09 627.19 527.09C627.19 527.09 627.19 527.09 627.19 527.09C627.19 459.85 627.19 422.49 627.19 415.02C627.19 415.02 627.19 415.02 627.19 415.02C632.48 415.02 635.42 415.02 636.01 415.02Z" id="aahGwsnGFu"></path><path d="M170.65 592.52L170.68 457.87L49.57 403.41L49.55 538.07L170.65 592.52Z" id="c3GrqAJGDW"></path><path d="M49.57 403.41L2.69 432.69L2.66 567.35L49.55 538.07L49.57 403.41Z" id="c1qbOimHl3"></path><path d="M170.65 592.52L123.77 621.81L2.66 567.35L49.55 538.07L170.65 592.52Z" id="d16i8yg04X"></path><path d="M170.68 457.87L123.79 487.15L2.69 432.69L49.57 403.41L170.68 457.87Z" id="e1auSB8cn"></path><path d="M170.68 457.87L123.79 487.15L123.77 621.81L170.65 592.52L170.68 457.87Z" id="efTFa4CFk"></path><path d="M123.77 621.81L123.79 487.15L2.69 432.69L2.66 567.35L123.77 621.81Z" id="bpYVReX9S"></path><path d="M413.1 43.41L414.06 43.51L415 43.64L415.94 43.8L416.86 44L417.76 44.23L418.65 44.5L419.53 44.8L420.39 45.13L421.23 45.49L422.06 45.89L422.86 46.31L423.65 46.76L424.42 47.24L425.17 47.74L425.89 48.27L426.59 48.83L427.27 49.42L427.93 50.02L428.56 50.66L429.17 51.31L429.75 51.99L430.3 52.69L430.82 53.41L431.32 54.14L431.79 54.9L432.23 55.68L432.63 56.48L433.01 57.29L433.35 58.12L433.67 58.96L433.94 59.82L434.19 60.69L434.39 61.58L434.56 62.48L434.7 63.39L434.8 64.31L434.85 65.25L434.87 66.19L434.83 66.19L434.83 152.66L435.01 152.66L435.01 521.68L434.83 521.68L434.83 611.64L434.6 611.64L434.55 612.56L434.46 613.46L434.33 614.35L434.17 615.23L433.98 616.1L433.75 616.95L433.49 617.79L433.2 618.62L432.88 619.43L432.52 620.23L432.14 621.01L431.73 621.77L431.29 622.52L430.82 623.25L430.33 623.96L429.81 624.65L429.26 625.32L428.69 625.97L428.1 626.6L427.48 627.2L426.84 627.78L426.17 628.34L425.49 628.88L424.78 629.38L424.06 629.87L423.31 630.33L422.55 630.76L421.77 631.16L420.97 631.53L420.16 631.88L419.32 632.19L418.48 632.48L417.62 632.73L416.74 632.96L415.86 633.15L414.96 633.3L414.05 633.43L413.12 633.52L412.19 633.57L411.25 633.59L410.31 633.57L409.37 633.52L408.45 633.43L407.54 633.3L406.64 633.15L405.75 632.96L404.87 632.73L404.01 632.48L403.17 632.19L402.33 631.88L401.52 631.53L400.72 631.16L399.94 630.76L399.17 630.33L398.42 629.87L397.7 629.38L396.99 628.88L396.3 628.34L395.64 627.78L395 627.2L394.38 626.6L393.78 625.97L393.21 625.32L392.66 624.65L392.14 623.96L391.64 623.25L391.17 622.52L390.73 621.77L390.32 621.01L389.94 620.23L389.58 619.43L389.26 618.62L388.97 617.79L388.7 616.95L388.48 616.1L388.28 615.23L388.12 614.35L387.99 613.46L387.9 612.56L387.85 611.64L387.8 611.64L387.8 548.85L289.66 548.85L289.66 611.1L289.63 612.03L289.56 612.95L289.45 613.86L289.3 614.76L289.12 615.65L288.9 616.52L288.65 617.38L288.37 618.23L288.05 619.06L287.7 619.88L287.32 620.67L286.9 621.46L286.46 622.22L285.99 622.97L285.49 623.7L284.96 624.4L284.41 625.09L283.83 625.76L283.23 626.4L282.59 627.02L281.94 627.62L281.26 628.19L280.56 628.74L279.84 629.27L279.1 629.76L278.34 630.23L277.55 630.67L276.75 631.09L275.93 631.47L275.1 631.83L274.24 632.15L273.38 632.45L272.49 632.71L271.59 632.94L270.68 633.13L269.76 633.3L268.82 633.42L267.87 633.51L266.91 633.57L265.95 633.59L264.97 633.57L264 633.51L263.04 633.42L262.1 633.29L261.17 633.13L260.25 632.93L259.34 632.69L258.45 632.43L257.57 632.13L256.71 631.8L255.87 631.43L255.05 631.04L254.24 630.62L253.45 630.17L252.68 629.69L251.94 629.19L251.21 628.65L250.51 628.09L249.83 627.51L249.17 626.9L248.54 626.27L247.94 625.62L247.36 624.94L246.8 624.24L246.28 623.52L245.78 622.78L245.31 622.02L244.88 621.25L244.47 620.45L244.09 619.64L243.75 618.81L243.44 617.97L243.16 617.11L242.92 616.23L242.71 615.35L242.54 614.45L242.4 613.54L242.31 612.61L242.25 611.68L242.23 610.74L242.27 610.74L242.27 521.55L242.41 521.55L242.41 155.38L242.27 155.38L242.27 65.28L242.5 65.28L242.56 64.37L242.65 63.47L242.77 62.58L242.93 61.7L243.13 60.83L243.35 59.98L243.61 59.13L243.9 58.31L244.23 57.49L244.58 56.7L244.96 55.92L245.37 55.15L245.81 54.41L246.28 53.68L246.77 52.97L247.3 52.28L247.84 51.61L248.41 50.96L249.01 50.33L249.63 49.73L250.27 49.14L250.93 48.59L251.61 48.05L252.32 47.54L253.05 47.06L253.79 46.6L254.55 46.17L255.33 45.77L256.13 45.39L256.95 45.05L257.78 44.73L258.62 44.45L259.48 44.19L260.36 43.97L261.25 43.78L262.15 43.62L263.06 43.5L263.98 43.41L264.91 43.36L265.85 43.34L266.8 43.36L267.73 43.41L268.65 43.5L269.56 43.62L270.47 43.78L271.35 43.97L272.23 44.19L273.09 44.45L273.94 44.73L274.77 45.05L275.58 45.39L276.38 45.77L277.17 46.17L277.93 46.6L278.68 47.06L279.4 47.54L280.11 48.05L280.8 48.59L281.46 49.14L282.11 49.73L282.73 50.33L283.32 50.96L283.9 51.61L284.44 52.28L284.96 52.97L285.46 53.68L285.93 54.41L286.37 55.15L286.78 55.92L287.17 56.7L287.52 57.49L287.85 58.31L288.14 59.13L288.4 59.98L288.63 60.83L288.82 61.7L288.98 62.58L289.11 63.47L289.2 64.37L289.25 65.28L289.3 65.28L289.3 128.08L387.44 128.08L387.44 65.83L387.47 64.9L387.55 63.98L387.66 63.07L387.8 62.17L387.98 61.28L388.2 60.41L388.45 59.55L388.74 58.7L389.06 57.87L389.41 57.05L389.79 56.25L390.2 55.47L390.64 54.7L391.11 53.96L391.61 53.23L392.14 52.52L392.69 51.84L393.27 51.17L393.88 50.53L394.51 49.91L395.16 49.31L395.84 48.73L396.54 48.19L397.26 47.66L398 47.17L398.77 46.7L399.55 46.25L400.35 45.84L401.17 45.45L402.01 45.1L402.86 44.77L403.73 44.48L404.61 44.22L405.51 43.99L406.42 43.79L407.35 43.63L408.28 43.5L409.23 43.41L410.19 43.36L411.16 43.34L412.13 43.36L413.1 43.41ZM291.57 521.05L388.48 521.05L388.48 424.09L291.57 424.09L291.57 521.05ZM290.12 387.37L387.03 387.37L387.03 290.46L290.12 290.46L290.12 387.37ZM290.12 250.8L387.03 250.8L387.03 153.88L290.12 153.88L290.12 250.8Z" id="hiJdBdDug"></path><path d="M251.73 70.85C251.73 70.85 251.73 70.85 251.73 70.85C251.73 397.4 251.73 578.81 251.73 615.09C251.73 615.09 251.73 615.09 251.73 615.09C248.21 615.09 246.25 615.09 245.86 615.09C245.86 615.09 245.86 615.09 245.86 615.09C245.86 288.55 245.86 107.13 245.86 70.85C245.86 70.85 245.86 70.85 245.86 70.85C249.38 70.85 251.34 70.85 251.73 70.85Z" id="aTbohPUlw"></path><path d="M248.68 71.52C249.65 68 246.16 51.19 265.89 49.91" id="c3pimsvDiw"></path><path d="M391.11 131.57C391.11 131.57 391.11 131.57 391.11 131.57C391.11 134.38 391.11 135.94 391.11 136.25C391.11 136.25 391.11 136.25 391.11 136.25C327.71 136.25 292.48 136.25 285.44 136.25C285.44 136.25 285.44 136.25 285.44 136.25C285.44 133.44 285.44 131.89 285.44 131.57C285.44 131.57 285.44 131.57 285.44 131.57C348.84 131.57 384.06 131.57 391.11 131.57Z" id="b28zgDDoai"></path><path d="M390.51 254.43C390.51 254.43 390.51 254.43 390.51 254.43C390.51 257.24 390.51 258.79 390.51 259.11C390.51 259.11 390.51 259.11 390.51 259.11C328.04 259.11 293.34 259.11 286.4 259.11C286.4 259.11 286.4 259.11 286.4 259.11C286.4 256.3 286.4 254.74 286.4 254.43C286.4 254.43 286.4 254.43 286.4 254.43C348.87 254.43 383.57 254.43 390.51 254.43Z" id="aq8MiAo4I"></path><path d="M390.46 391C390.46 391 390.46 391 390.46 391C390.46 393.8 390.46 395.36 390.46 395.67C390.46 395.67 390.46 395.67 390.46 395.67C327.99 395.67 293.29 395.67 286.35 395.67C286.35 395.67 286.35 395.67 286.35 395.67C286.35 392.87 286.35 391.31 286.35 391C286.35 391 286.35 391 286.35 391C348.81 391 383.52 391 390.46 391Z" id="d2DYQZzVYu"></path><path d="M392.02 524.71C392.02 524.71 392.02 524.71 392.02 524.71C392.02 527.51 392.02 529.07 392.02 529.38C392.02 529.38 392.02 529.38 392.02 529.38C329.55 529.38 294.84 529.38 287.9 529.38C287.9 529.38 287.9 529.38 287.9 529.38C287.9 526.58 287.9 525.02 287.9 524.71C287.9 524.71 287.9 524.71 287.9 524.71C350.37 524.71 385.08 524.71 392.02 524.71Z" id="byrvKPIwQ"></path><path d="M394.49 259.1C394.49 259.1 394.49 259.1 394.49 259.1C391.68 259.1 390.12 259.1 389.81 259.1C389.81 259.1 389.81 259.1 389.81 259.1C389.81 193.67 389.81 157.32 389.81 150.05C389.81 150.05 389.81 150.05 389.81 150.05C392.62 150.05 394.17 150.05 394.49 150.05C394.49 150.05 394.49 150.05 394.49 150.05C394.49 215.48 394.49 251.83 394.49 259.1Z" id="c1jhAy7Yfc"></path><path d="M394.48 395.67C394.48 395.67 394.48 395.67 394.48 395.67C391.68 395.67 390.12 395.67 389.81 395.67C389.81 395.67 389.81 395.67 389.81 395.67C389.81 330.24 389.81 293.9 389.81 286.63C389.81 286.63 389.81 286.63 389.81 286.63C392.61 286.63 394.17 286.63 394.48 286.63C394.48 286.63 394.48 286.63 394.48 286.63C394.48 352.05 394.48 388.4 394.48 395.67Z" id="b250L60HDU"></path><path d="M396.3 529.38C396.3 529.38 396.3 529.38 396.3 529.38C393.5 529.38 391.94 529.38 391.63 529.38C391.63 529.38 391.63 529.38 391.63 529.38C391.63 463.95 391.63 427.61 391.63 420.34C391.63 420.34 391.63 420.34 391.63 420.34C394.43 420.34 395.99 420.34 396.3 420.34C396.3 420.34 396.3 420.34 396.3 420.34C396.3 485.76 396.3 522.11 396.3 529.38Z" id="aaZ1iN4ED"></path><path d="M395.95 608.79C395.95 608.79 395.95 608.79 395.95 608.79C393.15 608.79 391.59 608.79 391.28 608.79C391.28 608.79 391.28 608.79 391.28 608.79C391.28 570.68 391.28 549.51 391.28 545.27C391.28 545.27 391.28 545.27 391.28 545.27C394.08 545.27 395.64 545.27 395.95 545.27C395.95 545.27 395.95 545.27 395.95 545.27C395.95 583.38 395.95 604.55 395.95 608.79Z" id="bHhDwfSpv"></path><path d="M395.7 136.24C395.7 136.24 395.7 136.24 395.7 136.24C392.9 136.24 391.34 136.24 391.03 136.24C391.03 136.24 391.03 136.24 391.03 136.24C391.03 95.6 391.03 73.03 391.03 68.51C391.03 68.51 391.03 68.51 391.03 68.51C393.84 68.51 395.39 68.51 395.7 68.51C395.7 68.51 395.7 68.51 395.7 68.51C395.7 109.15 395.7 131.73 395.7 136.24Z" id="bNh9n8j0Y"></path><path d="M393.18 73.34C394.42 66.43 391.5 65.18 395.67 57.5C398.28 52.7 403.42 49.4 411.59 49.24" id="a3pIomyEm1"></path><path d="M321.71 345.61L273.9 244.43L126.98 234.9L174.78 336.08L321.71 345.61Z" id="f6azmYHBI"></path><path d="M126.98 234.9L96.39 284.59L144.19 385.77L174.78 336.08L126.98 234.9Z" id="d4HpaAcq81"></path><path d="M321.71 345.61L291.12 395.3L144.19 385.77L174.78 336.08L321.71 345.61Z" id="b1RVVPL64"></path><path d="M273.9 244.43L243.32 294.12L96.39 284.59L126.98 234.9L273.9 244.43Z" id="aLD8NQ3IY"></path><path d="M273.9 244.43L243.32 294.12L291.12 395.3L321.71 345.61L273.9 244.43Z" id="a6wuxRX7K"></path><path d="M291.12 395.3L243.32 294.12L96.39 284.59L144.19 385.77L291.12 395.3Z" id="a3Db3dBYmj"></path><path d="M383.38 204.49C249.97 204.49 175.86 204.49 161.03 204.49C161.03 204.49 135.07 207.09 135.07 177.49C135.07 173.37 135.07 152.78 135.07 115.7" id="h20w9XFlB"></path><path d="M496.55 204.49L438.57 204.49" id="beL6IEMbL"></path><path d="M385.3 468.48L174.24 468.48" id="a2PVNt9vbn"></path></defs><g><g><g><g><use xlink:href="#h5skvVa4B" opacity="1" fill="#e9e9ff" fill-opacity="1"></use><g><use xlink:href="#h5skvVa4B" opacity="1" fill-opacity="0" stroke="#000000" stroke-width="1" stroke-opacity="1"></use></g></g><g><use xlink:href="#aBSTbplco" opacity="1" fill="#353564" fill-opacity="1"></use><g><use xlink:href="#aBSTbplco" opacity="1" fill-opacity="0" stroke="#000000" stroke-width="1" stroke-opacity="1"></use></g></g><g><use xlink:href="#alqKh3HXP" opacity="1" fill="#afafde" fill-opacity="1"></use><g><use xlink:href="#alqKh3HXP" opacity="1" fill-opacity="0" stroke="#000000" stroke-width="1" stroke-opacity="1"></use></g></g><g><use xlink:href="#a5f0a1CLx6" opacity="1" fill="#ffffff" fill-opacity="1"></use><g><use xlink:href="#a5f0a1CLx6" opacity="1" fill-opacity="0" stroke="#000000" stroke-width="1" stroke-opacity="1"></use></g></g><g><use xlink:href="#aka8seBN6" opacity="1" fill="#ffffff" fill-opacity="1"></use><g><use xlink:href="#aka8seBN6" opacity="1" fill-opacity="0" stroke="#000000" stroke-width="1" stroke-opacity="1"></use></g></g><g><use xlink:href="#a1698GTZC2" opacity="1" fill="#ffffff" fill-opacity="1"></use><g><use xlink:href="#a1698GTZC2" opacity="1" fill-opacity="0" stroke="#000000" stroke-width="1" stroke-opacity="1"></use></g></g><g><use xlink:href="#a5wBDZP4w3" opacity="1" fill="#f03e39" fill-opacity="1"></use><g><use xlink:href="#a5wBDZP4w3" opacity="1" fill-opacity="0" stroke="#000000" stroke-width="1" stroke-opacity="1"></use></g></g><g><use xlink:href="#ap9sLEXeH" opacity="1" fill="#000000" fill-opacity="0"></use><g><use xlink:href="#ap9sLEXeH" opacity="1" fill-opacity="0" stroke="#000000" stroke-width="1" stroke-opacity="1"></use></g></g><g><use xlink:href="#aAxwJPvDn" opacity="1" fill="#000000" fill-opacity="1"></use><g><use xlink:href="#aAxwJPvDn" opacity="1" fill-opacity="0" stroke="#000000" stroke-width="1" stroke-opacity="1"></use></g></g><g><use xlink:href="#a829YLQeAj" opacity="1" fill="#ffffff" fill-opacity="1"></use><g><use xlink:href="#a829YLQeAj" opacity="1" fill-opacity="0" stroke="#000000" stroke-width="1" stroke-opacity="0"></use></g></g><g><use xlink:href="#agYHCn76Q" opacity="1" fill="#ffffff" fill-opacity="1"></use><g><use xlink:href="#agYHCn76Q" opacity="1" fill-opacity="0" stroke="#000000" stroke-width="1" stroke-opacity="0"></use></g></g><g><use xlink:href="#hmCMTqR6T" opacity="1" fill="#ffffff" fill-opacity="0.95"></use><g><use xlink:href="#hmCMTqR6T" opacity="1" fill-opacity="0" stroke="#000000" stroke-width="1" stroke-opacity="0"></use></g></g><g><use xlink:href="#ae0w0MJG" opacity="1" fill="#ffffff" fill-opacity="0.95"></use><g><use xlink:href="#ae0w0MJG" opacity="1" fill-opacity="0" stroke="#000000" stroke-width="1" stroke-opacity="0"></use></g></g><g><use xlink:href="#d2qJQkvhzT" opacity="1" fill="#000000" fill-opacity="0.95"></use><g><use xlink:href="#d2qJQkvhzT" opacity="1" fill-opacity="0" stroke="#000000" stroke-width="1" stroke-opacity="1"></use></g></g><g><use xlink:href="#i1jjwAhBrb" opacity="1" fill="#ffffff" fill-opacity="1"></use><g><use xlink:href="#i1jjwAhBrb" opacity="1" fill-opacity="0" stroke="#000000" stroke-width="1" stroke-opacity="0"></use></g></g><g><use xlink:href="#c1CQ68dbJr" opacity="1" fill="#ffffff" fill-opacity="1"></use><g><use xlink:href="#c1CQ68dbJr" opacity="1" fill-opacity="0" stroke="#000000" stroke-width="1" stroke-opacity="0"></use></g></g><g><use xlink:href="#cqoX02nHn" opacity="1" fill="#ffffff" fill-opacity="0.95"></use><g><use xlink:href="#cqoX02nHn" opacity="1" fill-opacity="0" stroke="#000000" stroke-width="1" stroke-opacity="0"></use></g></g><g><use xlink:href="#b3uIloTMQ" opacity="1" fill="#ffffff" fill-opacity="0.95"></use><g><use xlink:href="#b3uIloTMQ" opacity="1" fill-opacity="0" stroke="#000000" stroke-width="1" stroke-opacity="0"></use></g></g><g><use xlink:href="#axwjGP5Zx" opacity="1" fill="#000000" fill-opacity="0.95"></use><g><use xlink:href="#axwjGP5Zx" opacity="1" fill-opacity="0" stroke="#000000" stroke-width="1" stroke-opacity="1"></use></g></g><g><use xlink:href="#c1y14FGOhF" opacity="1" fill="#ffffff" fill-opacity="1"></use><g><use xlink:href="#c1y14FGOhF" opacity="1" fill-opacity="0" stroke="#000000" stroke-width="1" stroke-opacity="0"></use></g></g><g><use xlink:href="#acXSiY32H" opacity="1" fill="#ffffff" fill-opacity="1"></use><g><use xlink:href="#acXSiY32H" opacity="1" fill-opacity="0" stroke="#000000" stroke-width="1" stroke-opacity="0"></use></g></g><g><use xlink:href="#avF9NWftW" opacity="1" fill="#ffffff" fill-opacity="0.95"></use><g><use xlink:href="#avF9NWftW" opacity="1" fill-opacity="0" stroke="#000000" stroke-width="1" stroke-opacity="0"></use></g></g><g><use xlink:href="#aahGwsnGFu" opacity="1" fill="#ffffff" fill-opacity="0.95"></use><g><use xlink:href="#aahGwsnGFu" opacity="1" fill-opacity="0" stroke="#000000" stroke-width="1" stroke-opacity="0"></use></g></g><g><use xlink:href="#c3GrqAJGDW" opacity="1" fill="#8686bf" fill-opacity="1"></use><g><use xlink:href="#c3GrqAJGDW" opacity="1" fill-opacity="0" stroke="#000000" stroke-width="1" stroke-opacity="1"></use></g></g><g><use xlink:href="#c1qbOimHl3" opacity="1" fill="#353564" fill-opacity="1"></use><g><use xlink:href="#c1qbOimHl3" opacity="1" fill-opacity="0" stroke="#000000" stroke-width="1" stroke-opacity="1"></use></g></g><g><use xlink:href="#d16i8yg04X" opacity="1" fill="#4d4d9f" fill-opacity="1"></use><g><use xlink:href="#d16i8yg04X" opacity="1" fill-opacity="0" stroke="#000000" stroke-width="1" stroke-opacity="1"></use></g></g><g><use xlink:href="#e1auSB8cn" opacity="1" fill="#ffffff" fill-opacity="1"></use><g><use xlink:href="#e1auSB8cn" opacity="1" fill-opacity="0" stroke="#000000" stroke-width="1" stroke-opacity="1"></use></g></g><g><use xlink:href="#efTFa4CFk" opacity="1" fill="#ffffff" fill-opacity="1"></use><g><use xlink:href="#efTFa4CFk" opacity="1" fill-opacity="0" stroke="#000000" stroke-width="1" stroke-opacity="1"></use></g></g><g><use xlink:href="#bpYVReX9S" opacity="1" fill="#ffffff" fill-opacity="1"></use><g><use xlink:href="#bpYVReX9S" opacity="1" fill-opacity="0" stroke="#000000" stroke-width="1" stroke-opacity="1"></use></g></g><g><use xlink:href="#hiJdBdDug" opacity="1" fill="#000000" fill-opacity="1"></use><g><use xlink:href="#hiJdBdDug" opacity="1" fill-opacity="0" stroke="#000000" stroke-width="1" stroke-opacity="1"></use></g></g><g><use xlink:href="#aTbohPUlw" opacity="1" fill="#ffffff" fill-opacity="1"></use><g><use xlink:href="#aTbohPUlw" opacity="1" fill-opacity="0" stroke="#000000" stroke-width="1" stroke-opacity="0"></use></g></g><g><use xlink:href="#c3pimsvDiw" opacity="1" fill="#000000" fill-opacity="0"></use><g><use xlink:href="#c3pimsvDiw" opacity="1" fill-opacity="0" stroke="#ffffff" stroke-width="3" stroke-opacity="1"></use></g></g><g><use xlink:href="#b28zgDDoai" opacity="1" fill="#ffffff" fill-opacity="1"></use><g><use xlink:href="#b28zgDDoai" opacity="1" fill-opacity="0" stroke="#000000" stroke-width="1" stroke-opacity="0"></use></g></g><g><use xlink:href="#aq8MiAo4I" opacity="1" fill="#ffffff" fill-opacity="1"></use><g><use xlink:href="#aq8MiAo4I" opacity="1" fill-opacity="0" stroke="#000000" stroke-width="1" stroke-opacity="0"></use></g></g><g><use xlink:href="#d2DYQZzVYu" opacity="1" fill="#ffffff" fill-opacity="1"></use><g><use xlink:href="#d2DYQZzVYu" opacity="1" fill-opacity="0" stroke="#000000" stroke-width="1" stroke-opacity="0"></use></g></g><g><use xlink:href="#byrvKPIwQ" opacity="1" fill="#ffffff" fill-opacity="1"></use><g><use xlink:href="#byrvKPIwQ" opacity="1" fill-opacity="0" stroke="#000000" stroke-width="1" stroke-opacity="0"></use></g></g><g><use xlink:href="#c1jhAy7Yfc" opacity="1" fill="#ffffff" fill-opacity="1"></use><g><use xlink:href="#c1jhAy7Yfc" opacity="1" fill-opacity="0" stroke="#000000" stroke-width="1" stroke-opacity="0"></use></g></g><g><use xlink:href="#b250L60HDU" opacity="1" fill="#ffffff" fill-opacity="1"></use><g><use xlink:href="#b250L60HDU" opacity="1" fill-opacity="0" stroke="#000000" stroke-width="1" stroke-opacity="0"></use></g></g><g><use xlink:href="#aaZ1iN4ED" opacity="1" fill="#ffffff" fill-opacity="1"></use><g><use xlink:href="#aaZ1iN4ED" opacity="1" fill-opacity="0" stroke="#000000" stroke-width="1" stroke-opacity="0"></use></g></g><g><use xlink:href="#bHhDwfSpv" opacity="1" fill="#ffffff" fill-opacity="1"></use><g><use xlink:href="#bHhDwfSpv" opacity="1" fill-opacity="0" stroke="#000000" stroke-width="1" stroke-opacity="0"></use></g></g><g><use xlink:href="#bNh9n8j0Y" opacity="1" fill="#ffffff" fill-opacity="1"></use><g><use xlink:href="#bNh9n8j0Y" opacity="1" fill-opacity="0" stroke="#000000" stroke-width="1" stroke-opacity="0"></use></g></g><g><use xlink:href="#a3pIomyEm1" opacity="1" fill="#000000" fill-opacity="0"></use><g><use xlink:href="#a3pIomyEm1" opacity="1" fill-opacity="0" stroke="#ffffff" stroke-width="3" stroke-opacity="1"></use></g></g><g><use xlink:href="#f6azmYHBI" opacity="1" fill="#8686bf" fill-opacity="1"></use><g><use xlink:href="#f6azmYHBI" opacity="1" fill-opacity="0" stroke="#000000" stroke-width="1" stroke-opacity="1"></use></g></g><g><use xlink:href="#d4HpaAcq81" opacity="1" fill="#353564" fill-opacity="1"></use><g><use xlink:href="#d4HpaAcq81" opacity="1" fill-opacity="0" stroke="#000000" stroke-width="1" stroke-opacity="1"></use></g></g><g><use xlink:href="#b1RVVPL64" opacity="1" fill="#4d4d9f" fill-opacity="1"></use><g><use xlink:href="#b1RVVPL64" opacity="1" fill-opacity="0" stroke="#000000" stroke-width="1" stroke-opacity="1"></use></g></g><g><use xlink:href="#aLD8NQ3IY" opacity="1" fill="#ffffff" fill-opacity="1"></use><g><use xlink:href="#aLD8NQ3IY" opacity="1" fill-opacity="0" stroke="#000000" stroke-width="1" stroke-opacity="1"></use></g></g><g><use xlink:href="#a6wuxRX7K" opacity="1" fill="#ffffff" fill-opacity="1"></use><g><use xlink:href="#a6wuxRX7K" opacity="1" fill-opacity="0" stroke="#000000" stroke-width="1" stroke-opacity="1"></use></g></g><g><use xlink:href="#a3Db3dBYmj" opacity="1" fill="#ffffff" fill-opacity="1"></use><g><use xlink:href="#a3Db3dBYmj" opacity="1" fill-opacity="0" stroke="#000000" stroke-width="1" stroke-opacity="1"></use></g></g><g><use xlink:href="#h20w9XFlB" opacity="1" fill="#000000" fill-opacity="0"></use><g><use xlink:href="#h20w9XFlB" opacity="1" fill-opacity="0" stroke="#000000" stroke-width="1" stroke-opacity="1"></use></g></g><g><use xlink:href="#beL6IEMbL" opacity="1" fill="#000000" fill-opacity="0"></use><g><use xlink:href="#beL6IEMbL" opacity="1" fill-opacity="0" stroke="#000000" stroke-width="1" stroke-opacity="1"></use></g></g><g><use xlink:href="#a2PVNt9vbn" opacity="1" fill="#000000" fill-opacity="0"></use><g><use xlink:href="#a2PVNt9vbn" opacity="1" fill-opacity="0" stroke="#000000" stroke-width="1" stroke-opacity="1"></use></g></g></g></g></g></svg>